<svg xmlns="http://www.w3.org/2000/svg" viewBox="0 0 800 1000" width="800" height="1000">
  <rect width="800" height="1000" fill="#eae7e0"/>
  
  
  <path d="M306 312 L372 286 L428 286 L494 312 L560 366 L540 432 L506 416 L506 784 L294 784 L294 416 L260 432 L240 366 Z" fill="#5b6040" stroke="rgba(20,18,14,.55)" stroke-width="3" stroke-linejoin="round"/>
  <line x1="300" y1="372" x2="506" y2="372" stroke="rgba(255,255,255,.30)" stroke-width="3"/><line x1="300" y1="434" x2="506" y2="434" stroke="rgba(255,255,255,.30)" stroke-width="3"/><line x1="300" y1="496" x2="506" y2="496" stroke="rgba(255,255,255,.30)" stroke-width="3"/><line x1="300" y1="558" x2="506" y2="558" stroke="rgba(255,255,255,.30)" stroke-width="3"/><line x1="300" y1="620" x2="506" y2="620" stroke="rgba(255,255,255,.30)" stroke-width="3"/><line x1="300" y1="682" x2="506" y2="682" stroke="rgba(255,255,255,.30)" stroke-width="3"/><line x1="300" y1="744" x2="506" y2="744" stroke="rgba(255,255,255,.30)" stroke-width="3"/>
  <line x1="400" y1="312" x2="400" y2="784" stroke="rgba(20,18,14,.55)" stroke-width="3" opacity="0.5"/>
  <path d="M372 286 L400 312 L428 286" fill="none" stroke="rgba(255,255,255,.30)" stroke-width="3"/>
  <rect x="338" y="372" width="124" height="150" rx="6" fill="rgba(255,255,255,.30)"/>
       <rect x="338" y="372" width="124" height="150" rx="6" fill="none" stroke="rgba(20,18,14,.55)" stroke-width="2" stroke-dasharray="7 7"/>
  <text x="400" y="900" text-anchor="middle" font-family="'Permanent Marker',cursive" font-size="30" fill="rgba(20,18,14,.55)">Los Angeles</text>
</svg>